<svg version="1.1" id="quote" xmlns="http://www.w3.org/2000/svg" xmlns:xlink="http://www.w3.org/1999/xlink" x="0px" y="0px"
	 width="30px" height="30px" viewBox="0 0 30 30" enable-background="new 0 0 30 30" xml:space="preserve">
<g>
	<path fill="#FFFFFF" d="M13,6v8c0,5.4-4,9-8,9v-3.1c2.9-0.5,4.2-2.7,4-5.9H5V6H13 M14,5h-1H5H4v1v8v1h1h3.013
		c-0.099,2.252-1.167,3.567-3.183,3.915L4,19.058V19.9V23v1h1c4.328,0,9-3.823,9-10V6V5L14,5z"/>
</g>
<g>
	<path fill="#FFFFFF" d="M25,6v8c0,5.4-4,9-8,9v-3.1c2.9-0.5,4.2-2.7,4-5.9h-4V6H25 M26,5h-1h-8h-1v1v8v1h1h3.014
		c-0.1,2.252-1.167,3.567-3.184,3.915L16,19.058V19.9V23v1h1c4.328,0,9-3.823,9-10V6V5L26,5z"/>
</g>
</svg>