<svg version="1.1" id="social" xmlns="http://www.w3.org/2000/svg" xmlns:xlink="http://www.w3.org/1999/xlink" x="0px" y="0px"
	 width="30px" height="30px" viewBox="0 0 30 30" enable-background="new 0 0 30 30" xml:space="preserve">
<g>
	<path fill="none" stroke="#FFFFFF" stroke-miterlimit="10" d="M25.338,21.512c0,1.75-1.465,3.217-3.365,3.217
		c-1.758,0-3.367-1.467-3.367-3.217c0-1.758,1.467-3.368,3.367-3.368C23.729,18.144,25.338,19.604,25.338,21.512z"/>
	<path fill="none" stroke="#FFFFFF" stroke-miterlimit="10" d="M25.338,6.867c0,1.759-1.465,3.22-3.365,3.22
		c-1.758,0-3.367-1.461-3.367-3.22c0-1.755,1.467-3.367,3.367-3.367C23.729,3.5,25.338,4.967,25.338,6.867z"/>
	<path fill="none" stroke="#FFFFFF" stroke-miterlimit="10" d="M9.234,14.188c0,1.754-1.467,3.223-3.367,3.223
		c-1.901,0-3.367-1.469-3.367-3.223c0-1.758,1.467-3.366,3.367-3.366C7.767,10.822,9.234,12.284,9.234,14.188z"/>
	<line fill="none" stroke="#FFFFFF" stroke-miterlimit="10" x1="18.898" y1="20.338" x2="8.5" y2="15.505"/>
	<line fill="none" stroke="#FFFFFF" stroke-miterlimit="10" x1="19.045" y1="7.892" x2="8.792" y2="12.721"/>
</g>
</svg>