<svg version="1.1" id="alert" xmlns="http://www.w3.org/2000/svg" xmlns:xlink="http://www.w3.org/1999/xlink" x="0px" y="0px"
	 width="30px" height="30px" viewBox="0 0 30 30" enable-background="new 0 0 30 30" xml:space="preserve">
<path fill="#FFFFFF" d="M15,4.958l3.104,6.284l0.232,0.472l0.521,0.075l6.984,1.01l-5.039,4.883l-0.377,0.365l0.088,0.52l1.164,6.91
	l-6.214-3.263L15,21.973l-0.465,0.242l-6.214,3.262l1.165-6.91l0.087-0.519l-0.377-0.364L4.158,12.8l6.985-1.01l0.521-0.075
	l0.233-0.472L15,4.958 M15,2.7l-4,8.1l-9,1.301L8.5,18.4L7,27.3l8-4.198l8,4.198L21.5,18.4l6.5-6.3l-9-1.3L15,2.7L15,2.7z"/>
</svg>