<svg version="1.1" id="alert" xmlns="http://www.w3.org/2000/svg" xmlns:xlink="http://www.w3.org/1999/xlink" x="0px" y="0px"
	 width="30px" height="30px" viewBox="0 0 30 30" enable-background="new 0 0 30 30" xml:space="preserve">
<path fill-rule="evenodd" clip-rule="evenodd" fill="#FFFFFF" d="M15,19.018c0.714,0,1.34,0.625,1.34,1.34
	c0,0.713-0.625,1.338-1.34,1.338s-1.339-0.625-1.339-1.338C13.661,19.643,14.286,19.018,15,19.018z"/>
<path fill-rule="evenodd" clip-rule="evenodd" fill="#FFFFFF" d="M15,17.678c-0.357,0-0.714-0.178-0.804-0.893
	c0,0-0.357-2.411-0.536-4.821c-0.089-1.607,0-2.321,0-2.411c0-0.714,0.625-1.339,1.339-1.339s1.339,0.625,1.339,1.339
	c0,0.089,0.09,0.803,0,2.411c-0.179,2.411-0.535,4.821-0.535,4.821C15.714,17.5,15.357,17.678,15,17.678z"/>
<circle fill="none" stroke="#FFFFFF" stroke-miterlimit="10" cx="15" cy="15" r="11.5"/>
</svg>
