<svg version="1.1" id="gallery" xmlns="http://www.w3.org/2000/svg" xmlns:xlink="http://www.w3.org/1999/xlink" x="0px" y="0px"
	 width="30px" height="30px" viewBox="0 0 30 30" enable-background="new 0 0 30 30" xml:space="preserve">
<path opacity="0.8" fill="#FFFFFF" d="M12,4v8H4V4H12 M13,3H3v10h10V3L13,3z"/>
<path opacity="0.8" fill="#FFFFFF" d="M26,4v8h-8V4H26 M27,3H17v10h10V3L27,3z"/>
<path opacity="0.8" fill="#FFFFFF" d="M12,18v8H4v-8H12 M13,17H3v10h10V17L13,17z"/>
<path opacity="0.8" fill="#FFFFFF" d="M26,18v8h-8v-8H26 M27,17H17v10h10V17L27,17z"/>
<path fill="none" stroke="#FFFFFF" stroke-miterlimit="1.5" d="M10,6H6v4"/>
<path fill="none" stroke="#FFFFFF" stroke-miterlimit="1.5" d="M24,10V6h-4"/>
<path fill="none" stroke="#FFFFFF" stroke-miterlimit="1.5" d="M20,24h4v-4"/>
<path fill="none" stroke="#FFFFFF" stroke-miterlimit="1.5" d="M6,20v4h4"/>
</svg>
