<svg viewBox="0 0 30 30" xmlns="http://www.w3.org/2000/svg">
    <path fill="#31AF64" d="m989.95 153.95c-.056.06-.112.099-.164.145-.054.047-.103.1-.161.14-.081.058-.17.101-.258.145-.034.017-.066.041-.102.056-.112.048-.227.081-.344.108-.016.003-.028.01-.043.013-.133.027-.267.041-.402.041-.122 0-.243-.011-.363-.033-.032-.006-.063-.019-.095-.027-.087-.02-.173-.04-.257-.072-.063-.024-.121-.06-.182-.09-.051-.026-.103-.046-.152-.076-.057-.035-.107-.08-.159-.12-.049-.037-.1-.068-.146-.11l-3.627-3.339c-.812-.748-.865-2.01-.117-2.826.748-.811 2.01-.866 2.826-.117l2.161 1.989 5.325-5.74c.752-.81 2.02-.856 2.827-.106.809.752.857 2.02.105 2.827l-6.672 7.192m-14.947-4.952c0 8.284 6.716 15 15 15 8.284 0 15-6.716 15-15 0-8.284-6.716-15-15-15-8.284 0-15 6.716-15 15" transform="translate(-975-134)"></path>
</svg>