<svg viewBox="0 0 30 30" xmlns="http://www.w3.org/2000/svg">
    <path fill="#E24329" d="m1115.66 151.83c.781.781.781 2.047 0 2.828-.391.391-.902.586-1.414.586-.512 0-1.024-.195-1.414-.586l-2.828-2.828-2.828 2.828c-.391.391-.903.586-1.414.586-.512 0-1.024-.195-1.415-.586-.781-.781-.781-2.047 0-2.828l2.829-2.829-2.829-2.828c-.781-.781-.781-2.048 0-2.828.782-.782 2.047-.782 2.829 0l2.828 2.828 2.828-2.828c.781-.782 2.047-.782 2.828 0 .781.78.781 2.047 0 2.828l-2.828 2.828 2.828 2.829m-20.656-2.829c0 8.285 6.716 15 15 15 8.284 0 15-6.715 15-15 0-8.284-6.716-15-15-15-8.284 0-15 6.716-15 15" transform="translate(-1095-134)"></path>
</svg>