<svg xmlns="http://www.w3.org/2000/svg" xmlns:xlink="http://www.w3.org/1999/xlink" width="131" height="94" viewBox="0 0 131 94">
  <defs>
    <polygon id="a" points="0 89 0 0 131 0 131 89"/>
  </defs>
  <g fill="none" fill-rule="evenodd">
    <g transform="translate(0 5)">
      <mask id="b" fill="white">
        <use xlink:href="#a"/>
      </mask>
      <path fill="#FB503B" d="M123.466985,40.6576623 C122.532742,40.8121678 108.363395,44.3657928 108.363395,44.3657928 L96.6853625,28.6062381 C96.3755053,28.1427218 96.0625341,27.6792055 96.8410696,27.5247 C97.6196051,27.3701946 110.854709,25.052613 111.477537,24.8981076 C112.100366,24.7436022 112.567487,24.5890967 113.346023,25.6706348 C114.124558,26.5976674 124.089813,39.2671134 124.556934,39.7306297 C125.024056,40.194146 124.402784,40.5031569 123.466985,40.6576623 M120.975671,67.8521646 C121.288642,68.4686413 121.754206,68.7776521 120.510107,69.086663 C119.4186,69.5501793 82.9831372,81.757654 82.2046017,82.0651199 C81.4260662,82.3741307 80.9589449,82.5301812 80.0262593,81.1380872 C79.0904596,79.7475383 67.2567196,59.5073258 67.2567196,59.5073258 L106.027789,49.4644723 C106.962031,49.1554614 107.275003,49.000956 107.896274,49.9279886 C108.519102,51.0095267 120.664257,67.3871032 120.975671,67.8521646 M58.3814147,56.2642567 C57.9142933,56.4172171 35.6481773,61.671947 34.5582276,61.9794128 C33.3125707,62.2884237 33.3125707,62.1339183 33.3125707,61.671947 C33.0011565,61.2068856 6.8423629,7.43899304 6.37524159,6.82097128 C6.06382738,6.20294953 6.06382738,5.58492777 6.37524159,5.58492777 C6.6866558,5.58492777 27.3957008,3.73086251 28.0185292,3.73086251 C28.7970647,3.73086251 28.6413576,3.88536795 28.9527718,4.34888427 C28.9527718,4.34888427 58.0700004,54.2541409 58.5371218,55.0266681 C59.1599502,55.7991953 58.848536,56.1082062 58.3814147,56.2642567 M130.473804,41.584695 C129.539562,40.6576623 117.550115,25.6706348 115.525922,23.1985478 C113.346023,20.7264608 112.41178,21.1899771 111.010416,21.3444825 C109.610609,21.4989879 94.505463,24.1255804 92.7926848,24.2800858 C91.0799067,24.5890967 89.989957,25.2071185 91.0799067,26.7521729 C92.0141493,28.1427218 101.979404,42.0482113 104.160861,45.2928255 L64.4539917,54.7192023 L33.0011565,2.34031357 C31.7554997,0.486248303 31.4440855,-0.131773451 28.6413576,0.0227319876 C25.8386297,0.177237426 3.88392791,2.03130269 2.32685686,2.03130269 C0.769785811,2.18580813 -0.942992344,2.80382988 0.614078706,6.51196041 C2.17114976,10.2200909 27.0842866,63.3699618 27.707115,64.9150162 C28.3299434,66.4600706 30.1984287,68.9321576 34.4025205,68.0051249 C38.7623194,66.9235869 53.7102015,63.0609509 61.9626781,60.8994198 C66.322477,68.6246918 75.0420749,84.3827014 76.754853,86.700283 C78.9347525,89.7903918 80.4918236,89.17237 83.7616728,88.2453374 C86.4086935,87.4728102 124.556934,73.8763316 126.269712,73.1038044 C127.982491,72.3312772 129.073997,71.8677609 127.826783,70.1697461 C126.892541,68.9321576 116.927286,55.4917295 111.633245,48.5389847 C115.214508,47.6104071 128.138198,44.2112874 129.539562,43.7477711 C131.096633,43.2842548 131.409604,42.5117276 130.473804,41.584695" mask="url(#b)"/>
    </g>
    <path fill="#FB503B" d="M56.864,14.7625 C56.7056659,14.6041659 56.6265,14.4110011 56.6265,14.183 L56.6265,1.814 C56.6265,1.69999943 56.6644996,1.60500038 56.7405,1.529 C56.8165004,1.45299962 56.9114994,1.415 57.0255,1.415 L58.5455,1.415 C58.6595006,1.415 58.7544996,1.45299962 58.8305,1.529 C58.9065004,1.60500038 58.9445,1.69999943 58.9445,1.814 L58.9445,12.777 L63.3525,12.777 C63.4665006,12.777 63.5614996,12.8149996 63.6375,12.891 C63.7135004,12.9670004 63.7515,13.0619994 63.7515,13.176 L63.7515,14.601 C63.7515,14.7150006 63.7135004,14.8099996 63.6375,14.886 C63.5614996,14.9620004 63.4665006,15 63.3525,15 L57.4435,15 C57.2154989,15 57.0223341,14.9208341 56.864,14.7625 Z M66.117,14.3445 C65.4519967,13.7428303 65.1195,12.9606715 65.1195,11.998 C65.1195,11.1239956 65.423497,10.3988362 66.0315,9.8225 C66.639503,9.24616378 67.4944945,8.86933422 68.5965,8.692 C68.8751681,8.66666654 69.1411654,8.62866692 69.3945,8.578 C70.2811711,8.47666616 70.8194991,8.40066692 71.0095,8.35 C71.478169,8.27399962 71.7125,8.00800228 71.7125,7.552 C71.7125,7.08333099 71.5193353,6.70650142 71.133,6.4215 C70.7466647,6.13649857 70.2621696,5.994 69.6795,5.994 C68.6534949,5.994 67.906169,6.36766293 67.4375,7.115 C67.3361662,7.27966749 67.215834,7.362 67.0765,7.362 C66.9751662,7.362 66.8928337,7.33666692 66.8295,7.286 L65.7655,6.564 C65.6514994,6.48799962 65.5945,6.38033403 65.5945,6.241 C65.5945,6.20299981 65.6071665,6.14600038 65.6325,6.07 C65.9998352,5.37332985 66.5444964,4.83183526 67.2665,4.4455 C67.9885036,4.05916473 68.8054954,3.866 69.7175,3.866 C70.5535042,3.866 71.2881635,4.02433175 71.9215,4.341 C72.5548365,4.65766825 73.0456649,5.10733042 73.394,5.69 C73.7423351,6.27266958 73.9165,6.9439962 73.9165,7.704 L73.9165,14.601 C73.9165,14.7150006 73.8785004,14.8099996 73.8025,14.886 C73.7264996,14.9620004 73.6315006,15 73.5175,15 L72.2255,15 C72.1114994,15 72.0165004,14.965167 71.9405,14.8955 C71.8644996,14.825833 71.8265,14.7276673 71.8265,14.601 L71.8265,13.86 C70.9524956,14.7846713 69.9138394,15.247 68.7105,15.247 C67.6464947,15.247 66.7820033,14.9461697 66.117,14.3445 Z M70.2875,12.834 C70.7308355,12.5806654 71.0886653,12.2481687 71.361,11.8365 C71.6333347,11.4248313 71.7695,10.9910023 71.7695,10.535 L71.7695,10.155 L70.3445,10.364 C69.5718295,10.4526671 69.0715011,10.5223331 68.8435,10.573 C67.8048281,10.7630009 67.2855,11.2126631 67.2855,11.922 C67.2855,12.3146686 67.4311652,12.6281655 67.7225,12.8625 C68.0138348,13.0968345 68.4001643,13.214 68.8815,13.214 C69.3755025,13.214 69.8441644,13.0873346 70.2875,12.834 Z M76.4245,14.886 C76.3484996,14.8099996 76.3105,14.7150006 76.3105,14.601 L76.3105,13.195 C76.3105,13.0809994 76.3484996,12.9860004 76.4245,12.91 C76.5005004,12.8339996 76.5954994,12.796 76.7095,12.796 L78.1535,12.796 L78.1535,6.26 L76.5195,6.26 C76.4054994,6.26 76.3105004,6.22200038 76.2345,6.146 C76.1584996,6.06999962 76.1205,5.97500057 76.1205,5.861 L76.1205,4.512 C76.1205,4.39799943 76.1584996,4.30300038 76.2345,4.227 C76.3105004,4.15099962 76.4054994,4.113 76.5195,4.113 L79.4645,4.113 C79.6925011,4.113 79.8856659,4.19216587 80.044,4.3505 C80.2023341,4.50883412 80.2815,4.70199886 80.2815,4.93 L80.2815,5.614 L81.3075,4.797 C81.6875019,4.49299848 82.0168319,4.28083393 82.2955,4.1605 C82.5741681,4.04016606 82.9034981,3.98 83.2835,3.98 L83.8725,3.98 C83.9865006,3.98 84.0814996,4.01799962 84.1575,4.094 C84.2335004,4.17000038 84.2715,4.26499943 84.2715,4.379 L84.2715,5.842 C84.2715,5.95600057 84.2335004,6.05099962 84.1575,6.127 C84.0814996,6.20300038 83.9865006,6.241 83.8725,6.241 L83.3785,6.241 C83.049165,6.241 82.7641679,6.29799943 82.5235,6.412 C82.2828321,6.52600057 81.9155025,6.77933137 81.4215,7.172 L80.3765,8.008 L80.3765,12.796 L82.2575,12.796 C82.3715006,12.796 82.4664996,12.8339996 82.5425,12.91 C82.6185004,12.9860004 82.6565,13.0809994 82.6565,13.195 L82.6565,14.601 C82.6565,14.7150006 82.6185004,14.8099996 82.5425,14.886 C82.4664996,14.9620004 82.3715006,15 82.2575,15 L76.7095,15 C76.5954994,15 76.5005004,14.9620004 76.4245,14.886 Z M86.542,14.3445 C85.8769967,13.7428303 85.5445,12.9606715 85.5445,11.998 C85.5445,11.1239956 85.848497,10.3988362 86.4565,9.8225 C87.064503,9.24616378 87.9194945,8.86933422 89.0215,8.692 C89.3001681,8.66666654 89.5661654,8.62866692 89.8195,8.578 C90.7061711,8.47666616 91.2444991,8.40066692 91.4345,8.35 C91.903169,8.27399962 92.1375,8.00800228 92.1375,7.552 C92.1375,7.08333099 91.9443353,6.70650142 91.558,6.4215 C91.1716647,6.13649857 90.6871696,5.994 90.1045,5.994 C89.0784949,5.994 88.331169,6.36766293 87.8625,7.115 C87.7611662,7.27966749 87.640834,7.362 87.5015,7.362 C87.4001662,7.362 87.3178336,7.33666692 87.2545,7.286 L86.1905,6.564 C86.0764994,6.48799962 86.0195,6.38033403 86.0195,6.241 C86.0195,6.20299981 86.0321665,6.14600038 86.0575,6.07 C86.4248352,5.37332985 86.9694964,4.83183526 87.6915,4.4455 C88.4135036,4.05916473 89.2304954,3.866 90.1425,3.866 C90.9785042,3.866 91.7131635,4.02433175 92.3465,4.341 C92.9798365,4.65766825 93.4706649,5.10733042 93.819,5.69 C94.1673351,6.27266958 94.3415,6.9439962 94.3415,7.704 L94.3415,14.601 C94.3415,14.7150006 94.3035004,14.8099996 94.2275,14.886 C94.1514996,14.9620004 94.0565006,15 93.9425,15 L92.6505,15 C92.5364994,15 92.4415004,14.965167 92.3655,14.8955 C92.2894996,14.825833 92.2515,14.7276673 92.2515,14.601 L92.2515,13.86 C91.3774956,14.7846713 90.3388394,15.247 89.1355,15.247 C88.0714947,15.247 87.2070033,14.9461697 86.542,14.3445 Z M90.7125,12.834 C91.1558356,12.5806654 91.5136653,12.2481687 91.786,11.8365 C92.0583347,11.4248313 92.1945,10.9910023 92.1945,10.535 L92.1945,10.155 L90.7695,10.364 C89.9968295,10.4526671 89.4965011,10.5223331 89.2685,10.573 C88.2298281,10.7630009 87.7105,11.2126631 87.7105,11.922 C87.7105,12.3146686 87.8561652,12.6281655 88.1475,12.8625 C88.4388348,13.0968345 88.8251643,13.214 89.3065,13.214 C89.8005025,13.214 90.2691645,13.0873346 90.7125,12.834 Z M100.2695,15.114 C99.9781652,15.114 99.7818338,14.9810013 99.6805,14.715 L96.1655,4.721 C96.1401665,4.64499962 96.1275,4.58800019 96.1275,4.55 C96.1275,4.4233327 96.1718329,4.31883374 96.2605,4.2365 C96.3491671,4.15416625 96.463166,4.113 96.6025,4.113 L97.9325,4.113 C98.0591673,4.113 98.1763328,4.15099962 98.284,4.227 C98.3916672,4.30300038 98.4644998,4.4043327 98.5025,4.531 L101.0675,12.169 L103.6325,4.531 C103.6705,4.4043327 103.743333,4.30300038 103.851,4.227 C103.958667,4.15099962 104.075833,4.113 104.2025,4.113 L105.4375,4.113 C105.576834,4.113 105.690833,4.15416625 105.7795,4.2365 C105.868167,4.31883374 105.9125,4.4233327 105.9125,4.55 C105.9125,4.58800019 105.899833,4.64499962 105.8745,4.721 L102.3595,14.715 C102.308833,14.8416673 102.229667,14.9429996 102.122,15.019 C102.014333,15.0950004 101.897167,15.133 101.7705,15.133 L100.2695,15.114 Z M109.76,14.392 C109.069663,13.9866646 108.521835,13.4356701 108.1165,12.739 C107.711165,12.0423298 107.5085,11.2823374 107.5085,10.459 L107.5085,8.407 C107.5085,7.58366255 107.711165,6.82367015 108.1165,6.127 C108.521835,5.43032985 109.069663,4.87933536 109.76,4.474 C110.450337,4.06866464 111.207163,3.866 112.0305,3.866 C112.853837,3.866 113.610663,4.06866464 114.301,4.474 C114.991337,4.87933536 115.539165,5.43032985 115.9445,6.127 C116.349835,6.82367015 116.5525,7.58366255 116.5525,8.407 L116.5525,9.68 C116.5525,9.90800114 116.473334,10.1011659 116.315,10.2595 C116.156666,10.4178341 115.963501,10.497 115.7355,10.497 L109.7885,10.497 L109.7885,10.592 C109.7885,11.2126698 110.006998,11.7414978 110.444,12.1785 C110.881002,12.6155022 111.40983,12.834 112.0305,12.834 L115.0515,12.834 C115.165501,12.834 115.2605,12.8719996 115.3365,12.948 C115.4125,13.0240004 115.4505,13.1189994 115.4505,13.233 L115.4505,14.601 C115.4505,14.7150006 115.4125,14.8099996 115.3365,14.886 C115.2605,14.9620004 115.165501,15 115.0515,15 L112.0305,15 C111.207163,15 110.450337,14.7973354 109.76,14.392 Z M114.2725,8.445 L114.2725,8.274 C114.2725,7.65333023 114.054002,7.12450218 113.617,6.6875 C113.179998,6.25049781 112.65117,6.032 112.0305,6.032 C111.40983,6.032 110.881002,6.25049781 110.444,6.6875 C110.006998,7.12450218 109.7885,7.65333023 109.7885,8.274 L109.7885,8.445 L114.2725,8.445 Z M120.172,14.7625 C120.013666,14.6041659 119.9345,14.4110011 119.9345,14.183 L119.9345,2.65 L118.2055,2.65 C118.091499,2.65 117.9965,2.61200038 117.9205,2.536 C117.8445,2.45999962 117.8065,2.36500057 117.8065,2.251 L117.8065,0.845 C117.8065,0.73099943 117.8445,0.63600038 117.9205,0.56 C117.9965,0.48399962 118.091499,0.446 118.2055,0.446 L121.3975,0.446 C121.625501,0.446 121.818666,0.525165875 121.977,0.6835 C122.135334,0.841834125 122.2145,1.03499886 122.2145,1.263 L122.2145,12.796 L123.9435,12.796 C124.057501,12.796 124.1525,12.8339996 124.2285,12.91 C124.3045,12.9860004 124.3425,13.0809994 124.3425,13.195 L124.3425,14.601 C124.3425,14.7150006 124.3045,14.8099996 124.2285,14.886 C124.1525,14.9620004 124.057501,15 123.9435,15 L120.7515,15 C120.523499,15 120.330334,14.9208341 120.172,14.7625 Z"/>
  </g>
</svg>
