<svg xmlns="http://www.w3.org/2000/svg" width="155" height="91" viewBox="0 0 155 91">
  <g fill="none" fill-rule="evenodd">
    <polygon fill="#41B882" points="64.932 0 52.75 20.944 40.568 0 0 0 52.75 90.693 105.5 0"/>
    <polygon fill="#34485D" points="64.861 0 52.75 21.016 40.639 0 21.285 0 52.75 54.601 84.215 0"/>
    <path fill="#34495D" d="M96.6928711,52.4394531 L99.0161133,52.4394531 L92.3256836,71 L90.1928711,71 L83.5405273,52.4394531 L85.8256836,52.4394531 L90.0913086,64.4492188 C90.5821965,65.8287829 90.9715155,67.1702409 91.2592773,68.4736328 C91.5639664,67.1025322 91.9617488,65.7356839 92.4526367,64.3730469 L96.6928711,52.4394531 Z M103.230957,57.0859375 L103.230957,66.1123047 C103.230957,67.2464249 103.489092,68.0927706 104.005371,68.6513672 C104.52165,69.2099637 105.32991,69.4892578 106.430176,69.4892578 C107.885912,69.4892578 108.950192,69.0914753 109.623047,68.2958984 C110.295902,67.5003215 110.632324,66.2011809 110.632324,64.3984375 L110.632324,57.0859375 L112.739746,57.0859375 L112.739746,71 L111.000488,71 L110.695801,69.1337891 L110.581543,69.1337891 C110.1499,69.8193394 109.551111,70.3440737 108.785156,70.7080078 C108.019202,71.0719419 107.14535,71.2539062 106.163574,71.2539062 C104.470857,71.2539062 103.203455,70.851892 102.361328,70.0478516 C101.519202,69.2438111 101.098145,67.9573656 101.098145,66.1884766 L101.098145,57.0859375 L103.230957,57.0859375 Z M123.086426,71.2539062 C121.029775,71.2539062 119.406907,70.6276104 118.217773,69.375 C117.02864,68.1223896 116.434082,66.3831492 116.434082,64.1572266 C116.434082,61.9143768 116.986323,60.1328191 118.09082,58.8125 C119.195318,57.4921809 120.678539,56.8320312 122.540527,56.8320312 C124.284026,56.8320312 125.663569,57.4054305 126.679199,58.5522461 C127.694829,59.6990617 128.202637,61.2119047 128.202637,63.0908203 L128.202637,64.4238281 L118.617676,64.4238281 C118.659994,66.0572998 119.072587,67.2971963 119.855469,68.1435547 C120.63835,68.9899131 121.740716,69.4130859 123.162598,69.4130859 C124.660652,69.4130859 126.141757,69.099938 127.605957,68.4736328 L127.605957,70.3525391 C126.861162,70.6741553 126.156579,70.9047845 125.492188,71.0444336 C124.827796,71.1840827 124.025884,71.2539062 123.086426,71.2539062 Z M122.515137,58.5966797 C121.397944,58.5966797 120.507165,58.9606083 119.842773,59.6884766 C119.178382,60.4163448 118.786947,61.4234962 118.668457,62.7099609 L125.942871,62.7099609 C125.942871,61.3811783 125.64665,60.3634475 125.054199,59.6567383 C124.461748,58.950029 123.615403,58.5966797 122.515137,58.5966797 Z M131.490723,69.6542969 C131.490723,69.0872367 131.61979,68.6577163 131.87793,68.3657227 C132.136069,68.073729 132.506345,67.9277344 132.98877,67.9277344 C133.479657,67.9277344 133.862629,68.073729 134.137695,68.3657227 C134.412762,68.6577163 134.550293,69.0872367 134.550293,69.6542969 C134.550293,70.2044298 134.410646,70.6276027 134.131348,70.9238281 C133.852049,71.2200536 133.471194,71.3681641 132.98877,71.3681641 C132.557127,71.3681641 132.199546,71.2348646 131.916016,70.9682617 C131.632486,70.7016588 131.490723,70.2636749 131.490723,69.6542969 Z M137.025879,77.2460938 C136.221838,77.2460938 135.570152,77.1403005 135.070801,76.9287109 L135.070801,75.2148438 C135.654788,75.3841154 136.230303,75.46875 136.797363,75.46875 C137.457523,75.46875 137.942056,75.2889015 138.250977,74.9291992 C138.559897,74.5694969 138.714355,74.0214881 138.714355,73.2851562 L138.714355,57.0859375 L140.821777,57.0859375 L140.821777,73.1328125 C140.821777,75.8750137 139.556491,77.2460938 137.025879,77.2460938 Z M138.536621,53.3154297 C138.536621,52.8330054 138.655109,52.4796561 138.89209,52.2553711 C139.12907,52.0310861 139.425291,51.9189453 139.780762,51.9189453 C140.119305,51.9189453 140.411294,52.033202 140.656738,52.2617188 C140.902182,52.4902355 141.024902,52.841469 141.024902,53.3154297 C141.024902,53.7893904 140.902182,54.1427397 140.656738,54.3754883 C140.411294,54.6082368 140.119305,54.7246094 139.780762,54.7246094 C139.425291,54.7246094 139.12907,54.6082368 138.89209,54.3754883 C138.655109,54.1427397 138.536621,53.7893904 138.536621,53.3154297 Z M154.266113,67.2041016 C154.266113,68.4990299 153.783696,69.4977178 152.818848,70.2001953 C151.853999,70.9026728 150.499846,71.2539062 148.756348,71.2539062 C146.911286,71.2539062 145.472499,70.961917 144.439941,70.3779297 L144.439941,68.4228516 C145.108565,68.7613949 145.825843,69.0279938 146.591797,69.2226562 C147.357751,69.4173187 148.096188,69.5146484 148.807129,69.5146484 C149.907395,69.5146484 150.753741,69.3390317 151.346191,68.987793 C151.938642,68.6365542 152.234863,68.1012406 152.234863,67.3818359 C152.234863,66.8401666 152.000002,66.3767923 151.530273,65.9916992 C151.060545,65.6066061 150.144375,65.1516953 148.781738,64.6269531 C147.48681,64.1445288 146.566409,63.7234719 146.020508,63.3637695 C145.474607,63.0040672 145.068361,62.5957054 144.801758,62.1386719 C144.535155,61.6816383 144.401855,61.1357454 144.401855,60.5009766 C144.401855,59.3668563 144.863114,58.4718457 145.785645,57.815918 C146.708175,57.1599902 147.973462,56.8320312 149.581543,56.8320312 C151.079597,56.8320312 152.543775,57.1367157 153.974121,57.7460938 L153.225098,59.4599609 C151.828606,58.8844372 150.563319,58.5966797 149.429199,58.5966797 C148.430496,58.5966797 147.677249,58.7532536 147.169434,59.0664062 C146.661619,59.3795589 146.407715,59.8111952 146.407715,60.3613281 C146.407715,60.7337258 146.502929,61.0511055 146.693359,61.3134766 C146.88379,61.5758477 147.19059,61.8255196 147.61377,62.0625 C148.036949,62.2994804 148.849441,62.6422504 150.05127,63.0908203 C151.701668,63.6917348 152.816729,64.296872 153.396484,64.90625 C153.97624,65.515628 154.266113,66.2815709 154.266113,67.2041016 Z"/>
  </g>
</svg>
